<svg width="962" height="430" viewBox="0 0 962 430" fill="none" xmlns="http://www.w3.org/2000/svg">
<rect width="962" height="429.701" rx="90" fill="url(#paint0_linear_135_2)"/>
<path d="M305.311 286.615C303.871 286.615 302.53 286.372 301.288 285.886C300.064 285.4 299.002 284.725 298.102 283.861C297.202 282.979 296.5 281.953 295.996 280.783C295.492 279.613 295.24 278.335 295.24 276.949C295.24 275.563 295.492 274.285 295.996 273.115C296.5 271.945 297.202 270.928 298.102 270.064C299.002 269.182 300.064 268.498 301.288 268.012C302.512 267.526 303.853 267.283 305.311 267.283C306.751 267.283 308.074 267.526 309.28 268.012C310.504 268.48 311.566 269.155 312.466 270.037C313.384 270.901 314.086 271.918 314.572 273.088C315.076 274.258 315.328 275.545 315.328 276.949C315.328 278.353 315.076 279.64 314.572 280.81C314.086 281.98 313.384 283.006 312.466 283.888C311.566 284.752 310.504 285.427 309.28 285.913C308.074 286.381 306.751 286.615 305.311 286.615ZM305.311 284.212C306.355 284.212 307.318 284.032 308.2 283.672C309.1 283.312 309.874 282.808 310.522 282.16C311.188 281.494 311.701 280.72 312.061 279.838C312.439 278.956 312.628 277.993 312.628 276.949C312.628 275.905 312.439 274.942 312.061 274.06C311.701 273.178 311.188 272.413 310.522 271.765C309.874 271.099 309.1 270.586 308.2 270.226C307.318 269.866 306.355 269.686 305.311 269.686C304.249 269.686 303.268 269.866 302.368 270.226C301.486 270.586 300.712 271.099 300.046 271.765C299.38 272.413 298.858 273.178 298.48 274.06C298.12 274.942 297.94 275.905 297.94 276.949C297.94 277.993 298.12 278.956 298.48 279.838C298.858 280.72 299.38 281.494 300.046 282.16C300.712 282.808 301.486 283.312 302.368 283.672C303.268 284.032 304.249 284.212 305.311 284.212ZM324.315 286.399V267.499H332.28C334.296 267.499 336.069 267.895 337.599 268.687C339.147 269.479 340.344 270.586 341.19 272.008C342.054 273.43 342.486 275.077 342.486 276.949C342.486 278.821 342.054 280.468 341.19 281.89C340.344 283.312 339.147 284.419 337.599 285.211C336.069 286.003 334.296 286.399 332.28 286.399H324.315ZM327.015 284.05H332.118C333.684 284.05 335.034 283.753 336.168 283.159C337.32 282.565 338.211 281.737 338.841 280.675C339.471 279.595 339.786 278.353 339.786 276.949C339.786 275.527 339.471 274.285 338.841 273.223C338.211 272.161 337.32 271.333 336.168 270.739C335.034 270.145 333.684 269.848 332.118 269.848H327.015V284.05ZM360.014 286.615C358.574 286.615 357.233 286.372 355.991 285.886C354.767 285.4 353.705 284.725 352.805 283.861C351.905 282.979 351.203 281.953 350.699 280.783C350.195 279.613 349.943 278.335 349.943 276.949C349.943 275.563 350.195 274.285 350.699 273.115C351.203 271.945 351.905 270.928 352.805 270.064C353.705 269.182 354.767 268.498 355.991 268.012C357.215 267.526 358.556 267.283 360.014 267.283C361.454 267.283 362.777 267.526 363.983 268.012C365.207 268.48 366.269 269.155 367.169 270.037C368.087 270.901 368.789 271.918 369.275 273.088C369.779 274.258 370.031 275.545 370.031 276.949C370.031 278.353 369.779 279.64 369.275 280.81C368.789 281.98 368.087 283.006 367.169 283.888C366.269 284.752 365.207 285.427 363.983 285.913C362.777 286.381 361.454 286.615 360.014 286.615ZM360.014 284.212C361.058 284.212 362.021 284.032 362.903 283.672C363.803 283.312 364.577 282.808 365.225 282.16C365.891 281.494 366.404 280.72 366.764 279.838C367.142 278.956 367.331 277.993 367.331 276.949C367.331 275.905 367.142 274.942 366.764 274.06C366.404 273.178 365.891 272.413 365.225 271.765C364.577 271.099 363.803 270.586 362.903 270.226C362.021 269.866 361.058 269.686 360.014 269.686C358.952 269.686 357.971 269.866 357.071 270.226C356.189 270.586 355.415 271.099 354.749 271.765C354.083 272.413 353.561 273.178 353.183 274.06C352.823 274.942 352.643 275.905 352.643 276.949C352.643 277.993 352.823 278.956 353.183 279.838C353.561 280.72 354.083 281.494 354.749 282.16C355.415 282.808 356.189 283.312 357.071 283.672C357.971 284.032 358.952 284.212 360.014 284.212ZM379.018 286.399V267.499H381.232L393.733 283.024H392.572V267.499H395.272V286.399H393.058L380.557 270.874H381.718V286.399H379.018ZM409.542 286.399V269.848H403.062V267.499H418.695V269.848H412.215V286.399H409.542ZM434.764 286.615C433.324 286.615 431.983 286.372 430.741 285.886C429.517 285.4 428.455 284.725 427.555 283.861C426.655 282.979 425.953 281.953 425.449 280.783C424.945 279.613 424.693 278.335 424.693 276.949C424.693 275.563 424.945 274.285 425.449 273.115C425.953 271.945 426.655 270.928 427.555 270.064C428.455 269.182 429.517 268.498 430.741 268.012C431.965 267.526 433.306 267.283 434.764 267.283C436.204 267.283 437.527 267.526 438.733 268.012C439.957 268.48 441.019 269.155 441.919 270.037C442.837 270.901 443.539 271.918 444.025 273.088C444.529 274.258 444.781 275.545 444.781 276.949C444.781 278.353 444.529 279.64 444.025 280.81C443.539 281.98 442.837 283.006 441.919 283.888C441.019 284.752 439.957 285.427 438.733 285.913C437.527 286.381 436.204 286.615 434.764 286.615ZM434.764 284.212C435.808 284.212 436.771 284.032 437.653 283.672C438.553 283.312 439.327 282.808 439.975 282.16C440.641 281.494 441.154 280.72 441.514 279.838C441.892 278.956 442.081 277.993 442.081 276.949C442.081 275.905 441.892 274.942 441.514 274.06C441.154 273.178 440.641 272.413 439.975 271.765C439.327 271.099 438.553 270.586 437.653 270.226C436.771 269.866 435.808 269.686 434.764 269.686C433.702 269.686 432.721 269.866 431.821 270.226C430.939 270.586 430.165 271.099 429.499 271.765C428.833 272.413 428.311 273.178 427.933 274.06C427.573 274.942 427.393 275.905 427.393 276.949C427.393 277.993 427.573 278.956 427.933 279.838C428.311 280.72 428.833 281.494 429.499 282.16C430.165 282.808 430.939 283.312 431.821 283.672C432.721 284.032 433.702 284.212 434.764 284.212ZM453.768 286.399V267.499H456.468V284.05H466.701V286.399H453.768ZM482.848 286.615C481.408 286.615 480.067 286.372 478.825 285.886C477.601 285.4 476.539 284.725 475.639 283.861C474.739 282.979 474.037 281.953 473.533 280.783C473.029 279.613 472.777 278.335 472.777 276.949C472.777 275.563 473.029 274.285 473.533 273.115C474.037 271.945 474.739 270.928 475.639 270.064C476.539 269.182 477.601 268.498 478.825 268.012C480.049 267.526 481.39 267.283 482.848 267.283C484.288 267.283 485.611 267.526 486.817 268.012C488.041 268.48 489.103 269.155 490.003 270.037C490.921 270.901 491.623 271.918 492.109 273.088C492.613 274.258 492.865 275.545 492.865 276.949C492.865 278.353 492.613 279.64 492.109 280.81C491.623 281.98 490.921 283.006 490.003 283.888C489.103 284.752 488.041 285.427 486.817 285.913C485.611 286.381 484.288 286.615 482.848 286.615ZM482.848 284.212C483.892 284.212 484.855 284.032 485.737 283.672C486.637 283.312 487.411 282.808 488.059 282.16C488.725 281.494 489.238 280.72 489.598 279.838C489.976 278.956 490.165 277.993 490.165 276.949C490.165 275.905 489.976 274.942 489.598 274.06C489.238 273.178 488.725 272.413 488.059 271.765C487.411 271.099 486.637 270.586 485.737 270.226C484.855 269.866 483.892 269.686 482.848 269.686C481.786 269.686 480.805 269.866 479.905 270.226C479.023 270.586 478.249 271.099 477.583 271.765C476.917 272.413 476.395 273.178 476.017 274.06C475.657 274.942 475.477 275.905 475.477 276.949C475.477 277.993 475.657 278.956 476.017 279.838C476.395 280.72 476.917 281.494 477.583 282.16C478.249 282.808 479.023 283.312 479.905 283.672C480.805 284.032 481.786 284.212 482.848 284.212ZM510.384 286.615C508.926 286.615 507.585 286.381 506.361 285.913C505.137 285.427 504.075 284.752 503.175 283.888C502.275 283.006 501.573 281.98 501.069 280.81C500.565 279.64 500.313 278.353 500.313 276.949C500.313 275.545 500.565 274.258 501.069 273.088C501.573 271.918 502.275 270.901 503.175 270.037C504.093 269.155 505.164 268.48 506.388 268.012C507.612 267.526 508.962 267.283 510.438 267.283C511.932 267.283 513.3 267.526 514.542 268.012C515.784 268.498 516.837 269.227 517.701 270.199L516.027 271.873C515.253 271.117 514.407 270.568 513.489 270.226C512.589 269.866 511.608 269.686 510.546 269.686C509.466 269.686 508.458 269.866 507.522 270.226C506.604 270.586 505.803 271.09 505.119 271.738C504.453 272.386 503.931 273.16 503.553 274.06C503.193 274.942 503.013 275.905 503.013 276.949C503.013 277.975 503.193 278.938 503.553 279.838C503.931 280.72 504.453 281.494 505.119 282.16C505.803 282.808 506.604 283.312 507.522 283.672C508.44 284.032 509.439 284.212 510.519 284.212C511.527 284.212 512.49 284.059 513.408 283.753C514.344 283.429 515.208 282.898 516 282.16L517.539 284.212C516.603 285.004 515.505 285.607 514.245 286.021C513.003 286.417 511.716 286.615 510.384 286.615ZM517.539 284.212L514.947 283.861V276.841H517.539V284.212ZM527.568 286.399V267.499H530.268V286.399H527.568ZM537.925 286.399L546.484 267.499H549.157L557.743 286.399H554.908L547.267 269.011H548.347L540.706 286.399H537.925ZM541.57 281.674L542.299 279.514H552.937L553.72 281.674H541.57ZM577.533 286.399V267.499H590.871V269.848H580.233V284.05H591.249V286.399H577.533ZM579.99 277.948V275.653H589.71V277.948H579.99ZM605.989 286.615C604.549 286.615 603.172 286.399 601.858 285.967C600.544 285.517 599.509 284.941 598.753 284.239L599.752 282.133C600.472 282.763 601.39 283.285 602.506 283.699C603.622 284.113 604.783 284.32 605.989 284.32C607.087 284.32 607.978 284.194 608.662 283.942C609.346 283.69 609.85 283.348 610.174 282.916C610.498 282.466 610.66 281.962 610.66 281.404C610.66 280.756 610.444 280.234 610.012 279.838C609.598 279.442 609.049 279.127 608.365 278.893C607.699 278.641 606.961 278.425 606.151 278.245C605.341 278.065 604.522 277.858 603.694 277.624C602.884 277.372 602.137 277.057 601.453 276.679C600.787 276.301 600.247 275.797 599.833 275.167C599.419 274.519 599.212 273.691 599.212 272.683C599.212 271.711 599.464 270.82 599.968 270.01C600.49 269.182 601.282 268.525 602.344 268.039C603.424 267.535 604.792 267.283 606.448 267.283C607.546 267.283 608.635 267.427 609.715 267.715C610.795 268.003 611.731 268.417 612.523 268.957L611.632 271.117C610.822 270.577 609.967 270.19 609.067 269.956C608.167 269.704 607.294 269.578 606.448 269.578C605.386 269.578 604.513 269.713 603.829 269.983C603.145 270.253 602.641 270.613 602.317 271.063C602.011 271.513 601.858 272.017 601.858 272.575C601.858 273.241 602.065 273.772 602.479 274.168C602.911 274.564 603.46 274.879 604.126 275.113C604.81 275.347 605.557 275.563 606.367 275.761C607.177 275.941 607.987 276.148 608.797 276.382C609.625 276.616 610.372 276.922 611.038 277.3C611.722 277.678 612.271 278.182 612.685 278.812C613.099 279.442 613.306 280.252 613.306 281.242C613.306 282.196 613.045 283.087 612.523 283.915C612.001 284.725 611.191 285.382 610.093 285.886C609.013 286.372 607.645 286.615 605.989 286.615ZM622.11 286.399V267.499H629.481C631.137 267.499 632.55 267.76 633.72 268.282C634.89 268.804 635.79 269.56 636.42 270.55C637.05 271.54 637.365 272.719 637.365 274.087C637.365 275.455 637.05 276.634 636.42 277.624C635.79 278.596 634.89 279.352 633.72 279.892C632.55 280.414 631.137 280.675 629.481 280.675H623.595L624.81 279.406V286.399H622.11ZM624.81 279.676L623.595 278.326H629.4C631.128 278.326 632.433 277.957 633.315 277.219C634.215 276.481 634.665 275.437 634.665 274.087C634.665 272.737 634.215 271.693 633.315 270.955C632.433 270.217 631.128 269.848 629.4 269.848H623.595L624.81 268.498V279.676ZM646.192 286.399V267.499H659.53V269.848H648.892V284.05H659.908V286.399H646.192ZM648.649 277.948V275.653H658.369V277.948H648.649ZM677.565 286.615C676.125 286.615 674.793 286.381 673.569 285.913C672.363 285.427 671.31 284.752 670.41 283.888C669.528 283.006 668.835 281.98 668.331 280.81C667.827 279.64 667.575 278.353 667.575 276.949C667.575 275.545 667.827 274.258 668.331 273.088C668.835 271.918 669.537 270.901 670.437 270.037C671.337 269.155 672.39 268.48 673.596 268.012C674.82 267.526 676.152 267.283 677.592 267.283C679.05 267.283 680.391 267.535 681.615 268.039C682.857 268.525 683.91 269.254 684.774 270.226L683.019 271.927C682.299 271.171 681.489 270.613 680.589 270.253C679.689 269.875 678.726 269.686 677.7 269.686C676.638 269.686 675.648 269.866 674.73 270.226C673.83 270.586 673.047 271.09 672.381 271.738C671.715 272.386 671.193 273.16 670.815 274.06C670.455 274.942 670.275 275.905 670.275 276.949C670.275 277.993 670.455 278.965 670.815 279.865C671.193 280.747 671.715 281.512 672.381 282.16C673.047 282.808 673.83 283.312 674.73 283.672C675.648 284.032 676.638 284.212 677.7 284.212C678.726 284.212 679.689 284.032 680.589 283.672C681.489 283.294 682.299 282.718 683.019 281.944L684.774 283.645C683.91 284.617 682.857 285.355 681.615 285.859C680.391 286.363 679.041 286.615 677.565 286.615ZM693.222 286.399V267.499H695.922V286.399H693.222ZM703.578 286.399L712.137 267.499H714.81L723.396 286.399H720.561L712.92 269.011H714L706.359 286.399H703.578ZM707.223 281.674L707.952 279.514H718.59L719.373 281.674H707.223ZM731.076 286.399V267.499H733.776V284.05H744.009V286.399H731.076ZM751.967 286.399V267.499H754.667V286.399H751.967ZM763.511 286.399V284.563L776.228 268.795L776.525 269.848H763.7V267.499H778.955V269.335L766.292 285.103L765.968 284.05H779.306V286.399H763.511ZM784.928 286.399L793.487 267.499H796.16L804.746 286.399H801.911L794.27 269.011H795.35L787.709 286.399H784.928ZM788.573 281.674L789.302 279.514H799.94L800.723 281.674H788.573ZM812.426 286.399V267.499H820.391C822.407 267.499 824.18 267.895 825.71 268.687C827.258 269.479 828.455 270.586 829.301 272.008C830.165 273.43 830.597 275.077 830.597 276.949C830.597 278.821 830.165 280.468 829.301 281.89C828.455 283.312 827.258 284.419 825.71 285.211C824.18 286.003 822.407 286.399 820.391 286.399H812.426ZM815.126 284.05H820.229C821.795 284.05 823.145 283.753 824.279 283.159C825.431 282.565 826.322 281.737 826.952 280.675C827.582 279.595 827.897 278.353 827.897 276.949C827.897 275.527 827.582 274.285 826.952 273.223C826.322 272.161 825.431 271.333 824.279 270.739C823.145 270.145 821.795 269.848 820.229 269.848H815.126V284.05ZM836.467 286.399L845.026 267.499H847.699L856.285 286.399H853.45L845.809 269.011H846.889L839.248 286.399H836.467ZM840.112 281.674L840.841 279.514H851.479L852.262 281.674H840.112Z" fill="#CFAF6D"/>
<path d="M759.682 191.465C758.296 189.506 760.235 186.98 762.105 185.477C763.675 184.214 765.653 183.342 767.624 183.757C768.245 183.888 768.766 184.078 769.207 184.337C771.67 185.784 770.065 189.389 767.839 191.179C766.724 192.076 765.374 192.672 763.944 192.716C761.701 192.786 760.363 192.43 759.682 191.465Z" fill="#F5F5F5"/>
<path d="M759.682 191.465C758.296 189.506 760.235 186.98 762.105 185.477C763.675 184.214 765.653 183.342 767.624 183.757C768.245 183.888 768.766 184.078 769.207 184.337C771.67 185.784 770.065 189.389 767.839 191.179C766.724 192.076 765.374 192.672 763.944 192.716C761.701 192.786 760.363 192.43 759.682 191.465Z" fill="#E0E0E0" fill-opacity="0.2"/>
<path fill-rule="evenodd" clip-rule="evenodd" d="M715.322 222.523C714.983 222.043 714.824 221.46 714.824 220.872C714.824 218.117 711.478 216.667 709.322 218.381C687.286 235.892 676.599 224.439 699.207 198.275C701.622 197.418 703.177 197.24 704.253 197.859C706.65 199.24 705.386 202.88 703.822 205.161C701.241 208.924 698.981 212.22 697.394 214.844C694.33 219.906 699.97 220.122 704.791 216.693C710.643 212.53 715.785 207.396 721.971 200.453C724.235 197.912 728.047 195.248 730.226 197.863C732.089 200.098 730.286 203.623 728.59 205.987C722.155 214.961 720.268 224.061 728.72 220.912C735.007 217.688 738.827 215.27 744.556 210.755C746.471 209.245 748.116 207.421 749.493 205.409C750.466 203.988 751.348 202.718 752.311 201.352C753.973 198.996 757.094 196.513 759.815 197.466C762.938 198.56 761.362 202.729 759.59 205.523C750.296 220.177 746.95 227.192 758.649 223.061C770.34 217.22 775.35 213.091 783.768 205.443C787.424 201.577 790.316 199.351 794.744 197.501C798.377 195.984 802.315 195.181 806.251 195.294C812.071 195.463 814.137 197.486 813.383 203.211C813.264 204.115 812.877 204.966 812.311 205.681C810.606 207.839 809.05 209.54 807.159 211.149C804.888 213.083 806.273 217.402 807.245 220.222C807.533 221.058 807.654 221.408 809.956 220.483C813.797 218.938 818.176 216.736 822.926 214.177C826.748 212.119 830.196 209.438 833.37 206.476C843.801 196.741 850.316 193.423 856.735 196.112C860.098 197.521 865.157 196.336 866.893 199.542C867.739 201.104 867.236 203.285 866.433 204.87C859.88 217.81 857.978 223.399 865.538 220.912C872.763 217.773 876.168 214.864 881.339 210.444L881.341 210.443C882.55 209.41 883.928 208.502 885.498 208.25C887.038 208.003 887.6 208.579 886.916 211.029L886.743 211.179C879.951 217.067 876.09 220.414 867.141 224.78C860.271 227.323 857.122 227.155 853.933 223.476C853.467 222.938 853.191 222.175 853.124 221.466C852.793 217.963 848.567 215.9 845.743 217.999C843.259 219.846 840.774 221.479 837.599 223.374C836.99 223.738 836.329 224.018 835.64 224.188C833.383 224.745 831.601 225.013 830.188 225.019C825.025 225.038 819.557 220.144 814.873 222.317C812.203 223.555 810.49 226.233 810.49 229.176C810.49 230.244 810.267 231.301 809.817 232.269C803.979 244.828 797.945 251.963 785.967 257.546C782.095 259.351 775.566 260.794 771.332 260.226C761.144 258.859 768.823 245.538 776.87 239.144C780.865 235.97 785.194 233.253 790.557 230.429C796.854 227.114 802.8 220.286 795.687 220.478L795.526 220.483C789.074 221.771 790.677 215.453 795.881 211.426C799.208 208.852 802.121 206.184 805.971 202.658L806.214 202.435C807.846 198.543 801.036 200.317 797.396 202.452C790.373 206.57 783.456 211.768 777.304 216.391C769.664 222.133 763.203 226.988 759.183 227.788C751.563 229.304 748.298 229.477 744.447 225.237C743.939 224.677 743.684 223.937 743.684 223.18C743.684 220.65 740.934 219.078 738.719 220.3C726.047 227.29 719.693 228.711 715.322 222.523ZM781.664 240.926C770.266 249.418 782.182 254.193 792.012 243.927C792.964 242.933 793.949 241.855 794.991 240.679C797.853 237.246 799.302 234.969 801.165 231.43C801.685 230.441 802.756 228.824 801.642 228.749C800.912 228.7 800.006 229.26 799.37 229.62C792.219 233.662 786.264 237.499 781.664 240.926ZM854.54 200.508C857.461 200.184 856.569 203.725 854.322 205.62C848.771 210.302 844.426 213.649 837.765 217.924C835.992 219.062 832.384 221.086 832.812 219.023C833.001 218.108 833.748 217.093 834.308 216.344C839.56 209.314 843.469 205.48 852.469 201.09C852.982 200.84 853.973 200.571 854.54 200.508Z" fill="#F5F5F5"/>
<path fill-rule="evenodd" clip-rule="evenodd" d="M715.322 222.523C714.983 222.043 714.824 221.46 714.824 220.872C714.824 218.117 711.478 216.667 709.322 218.381C687.286 235.892 676.599 224.439 699.207 198.275C701.622 197.418 703.177 197.24 704.253 197.859C706.65 199.24 705.386 202.88 703.822 205.161C701.241 208.924 698.981 212.22 697.394 214.844C694.33 219.906 699.97 220.122 704.791 216.693C710.643 212.53 715.785 207.396 721.971 200.453C724.235 197.912 728.047 195.248 730.226 197.863C732.089 200.098 730.286 203.623 728.59 205.987C722.155 214.961 720.268 224.061 728.72 220.912C735.007 217.688 738.827 215.27 744.556 210.755C746.471 209.245 748.116 207.421 749.493 205.409C750.466 203.988 751.348 202.718 752.311 201.352C753.973 198.996 757.094 196.513 759.815 197.466C762.938 198.56 761.362 202.729 759.59 205.523C750.296 220.177 746.95 227.192 758.649 223.061C770.34 217.22 775.35 213.091 783.768 205.443C787.424 201.577 790.316 199.351 794.744 197.501C798.377 195.984 802.315 195.181 806.251 195.294C812.071 195.463 814.137 197.486 813.383 203.211C813.264 204.115 812.877 204.966 812.311 205.681C810.606 207.839 809.05 209.54 807.159 211.149C804.888 213.083 806.273 217.402 807.245 220.222C807.533 221.058 807.654 221.408 809.956 220.483C813.797 218.938 818.176 216.736 822.926 214.177C826.748 212.119 830.196 209.438 833.37 206.476C843.801 196.741 850.316 193.423 856.735 196.112C860.098 197.521 865.157 196.336 866.893 199.542C867.739 201.104 867.236 203.285 866.433 204.87C859.88 217.81 857.978 223.399 865.538 220.912C872.763 217.773 876.168 214.864 881.339 210.444L881.341 210.443C882.55 209.41 883.928 208.502 885.498 208.25C887.038 208.003 887.6 208.579 886.916 211.029L886.743 211.179C879.951 217.067 876.09 220.414 867.141 224.78C860.271 227.323 857.122 227.155 853.933 223.476C853.467 222.938 853.191 222.175 853.124 221.466C852.793 217.963 848.567 215.9 845.743 217.999C843.259 219.846 840.774 221.479 837.599 223.374C836.99 223.738 836.329 224.018 835.64 224.188C833.383 224.745 831.601 225.013 830.188 225.019C825.025 225.038 819.557 220.144 814.873 222.317C812.203 223.555 810.49 226.233 810.49 229.176C810.49 230.244 810.267 231.301 809.817 232.269C803.979 244.828 797.945 251.963 785.967 257.546C782.095 259.351 775.566 260.794 771.332 260.226C761.144 258.859 768.823 245.538 776.87 239.144C780.865 235.97 785.194 233.253 790.557 230.429C796.854 227.114 802.8 220.286 795.687 220.478L795.526 220.483C789.074 221.771 790.677 215.453 795.881 211.426C799.208 208.852 802.121 206.184 805.971 202.658L806.214 202.435C807.846 198.543 801.036 200.317 797.396 202.452C790.373 206.57 783.456 211.768 777.304 216.391C769.664 222.133 763.203 226.988 759.183 227.788C751.563 229.304 748.298 229.477 744.447 225.237C743.939 224.677 743.684 223.937 743.684 223.18C743.684 220.65 740.934 219.078 738.719 220.3C726.047 227.29 719.693 228.711 715.322 222.523ZM781.664 240.926C770.266 249.418 782.182 254.193 792.012 243.927C792.964 242.933 793.949 241.855 794.991 240.679C797.853 237.246 799.302 234.969 801.165 231.43C801.685 230.441 802.756 228.824 801.642 228.749C800.912 228.7 800.006 229.26 799.37 229.62C792.219 233.662 786.264 237.499 781.664 240.926ZM854.54 200.508C857.461 200.184 856.569 203.725 854.322 205.62C848.771 210.302 844.426 213.649 837.765 217.924C835.992 219.062 832.384 221.086 832.812 219.023C833.001 218.108 833.748 217.093 834.308 216.344C839.56 209.314 843.469 205.48 852.469 201.09C852.982 200.84 853.973 200.571 854.54 200.508Z" fill="#E0E0E0" fill-opacity="0.2"/>
<path fill-rule="evenodd" clip-rule="evenodd" d="M672.151 240.135C670.332 240.563 668.458 240.679 666.589 240.679H653.984C647.532 240.679 641.099 239.985 634.795 238.609L606.867 232.514L606.55 232.737C594.777 241.024 588.08 245.739 573.197 248.413C565.753 248.791 560.406 248.418 556.032 246.995C546.085 243.76 539.371 230.705 547.75 224.445C552.127 221.175 558.857 219.67 564.317 219.478C574.609 219.118 583.377 220.365 596.33 223.869C600.215 224.92 604.415 223.959 607.246 221.1C609.172 219.155 610.855 217.353 612.439 215.538C616.405 210.997 612.896 204.154 606.867 204.154C573.813 201.247 565.882 180.57 581.621 168.048C582.729 167.166 584.78 166.407 586.193 166.498C589.447 166.709 586.339 170.574 583.925 172.766C583.554 173.103 583.188 173.459 582.816 173.843C581.353 175.352 580.321 177.281 580.148 179.375C580.084 180.147 580.084 180.883 580.148 181.655C580.324 183.776 581.159 185.793 582.356 187.553C585.927 192.802 590.309 195.584 599.238 198.021C601.805 198.722 604.469 198.998 607.129 198.998H609.635C619.302 198.998 628.369 194.328 633.89 186.393C651.22 161.486 667.278 138.407 686.499 135.832C700.473 135.221 709.245 140.632 705.612 154.447C704.157 159.98 700.873 164.837 697.189 169.215C681.582 187.763 665.169 197.014 637.619 202.224C633.662 202.972 630.058 205.038 627.543 208.183C620.288 217.256 624.637 231.048 636.079 233.057C639.353 233.632 642.875 234.154 646.95 234.663H667.454C668.745 234.663 670.038 234.537 671.291 234.223C674.751 233.355 676.757 232.441 678.208 231.081C679.595 229.78 681.512 228.137 682.836 229.501C683.844 230.539 683.39 232.355 682.521 233.511C679.837 237.082 677.186 238.953 672.151 240.135ZM547.776 234.569C546.856 225.124 562.605 225.209 572.095 225.209H574.266C582.172 226.076 586.903 226.906 593.319 228.586C595.582 229.178 599.577 229.727 597.781 231.225C591.095 235.963 586.405 238.64 579.129 241.057C575.23 242.352 571.116 242.827 567.008 242.827C560.862 242.827 554.113 242.41 549.729 238.103C548.541 236.936 547.892 235.756 547.776 234.569ZM687.033 141.418C677.152 143.927 653.197 170.82 636.556 196.05C635.642 197.435 634.114 199.388 635.727 198.998C656.684 193.83 666.425 188.044 682.758 176.224C686.847 172.301 689.704 169.02 692.341 165.195C697.107 158.28 703.768 148.062 697.808 142.145C695.801 140.153 692.151 140.118 687.033 141.418Z" fill="#F5F5F5"/>
<path fill-rule="evenodd" clip-rule="evenodd" d="M672.151 240.135C670.332 240.563 668.458 240.679 666.589 240.679H653.984C647.532 240.679 641.099 239.985 634.795 238.609L606.867 232.514L606.55 232.737C594.777 241.024 588.08 245.739 573.197 248.413C565.753 248.791 560.406 248.418 556.032 246.995C546.085 243.76 539.371 230.705 547.75 224.445C552.127 221.175 558.857 219.67 564.317 219.478C574.609 219.118 583.377 220.365 596.33 223.869C600.215 224.92 604.415 223.959 607.246 221.1C609.172 219.155 610.855 217.353 612.439 215.538C616.405 210.997 612.896 204.154 606.867 204.154C573.813 201.247 565.882 180.57 581.621 168.048C582.729 167.166 584.78 166.407 586.193 166.498C589.447 166.709 586.339 170.574 583.925 172.766C583.554 173.103 583.188 173.459 582.816 173.843C581.353 175.352 580.321 177.281 580.148 179.375C580.084 180.147 580.084 180.883 580.148 181.655C580.324 183.776 581.159 185.793 582.356 187.553C585.927 192.802 590.309 195.584 599.238 198.021C601.805 198.722 604.469 198.998 607.129 198.998H609.635C619.302 198.998 628.369 194.328 633.89 186.393C651.22 161.486 667.278 138.407 686.499 135.832C700.473 135.221 709.245 140.632 705.612 154.447C704.157 159.98 700.873 164.837 697.189 169.215C681.582 187.763 665.169 197.014 637.619 202.224C633.662 202.972 630.058 205.038 627.543 208.183C620.288 217.256 624.637 231.048 636.079 233.057C639.353 233.632 642.875 234.154 646.95 234.663H667.454C668.745 234.663 670.038 234.537 671.291 234.223C674.751 233.355 676.757 232.441 678.208 231.081C679.595 229.78 681.512 228.137 682.836 229.501C683.844 230.539 683.39 232.355 682.521 233.511C679.837 237.082 677.186 238.953 672.151 240.135ZM547.776 234.569C546.856 225.124 562.605 225.209 572.095 225.209H574.266C582.172 226.076 586.903 226.906 593.319 228.586C595.582 229.178 599.577 229.727 597.781 231.225C591.095 235.963 586.405 238.64 579.129 241.057C575.23 242.352 571.116 242.827 567.008 242.827C560.862 242.827 554.113 242.41 549.729 238.103C548.541 236.936 547.892 235.756 547.776 234.569ZM687.033 141.418C677.152 143.927 653.197 170.82 636.556 196.05C635.642 197.435 634.114 199.388 635.727 198.998C656.684 193.83 666.425 188.044 682.758 176.224C686.847 172.301 689.704 169.02 692.341 165.195C697.107 158.28 703.768 148.062 697.808 142.145C695.801 140.153 692.151 140.118 687.033 141.418Z" fill="#E0E0E0" fill-opacity="0.2"/>
<path d="M434.04 186.272C432.24 187.984 431.4 190.832 433.66 191.862C435.127 192.531 437.179 192.092 438.473 191.132L439.411 190.436C441.873 188.608 443.802 184.536 440.897 183.556C440.76 183.51 440.617 183.469 440.468 183.433C438.603 182.979 436.695 183.845 435.271 185.131C434.85 185.51 434.447 185.885 434.04 186.272Z" fill="#F5F5F5"/>
<path d="M434.04 186.272C432.24 187.984 431.4 190.832 433.66 191.862C435.127 192.531 437.179 192.092 438.473 191.132L439.411 190.436C441.873 188.608 443.802 184.536 440.897 183.556C440.76 183.51 440.617 183.469 440.468 183.433C438.603 182.979 436.695 183.845 435.271 185.131C434.85 185.51 434.447 185.885 434.04 186.272Z" fill="#E0E0E0" fill-opacity="0.2"/>
<path fill-rule="evenodd" clip-rule="evenodd" d="M117.105 201.252C117.201 202.693 115.402 203.287 113.977 203.057C109.471 202.33 106.568 201.147 104.223 198.782C101.481 196.017 100.757 191.841 101.459 188.01C102.604 181.771 105.304 177.474 111.502 171.582L123.921 161.891C127.75 158.903 131.814 156.23 136.074 153.898L154.792 143.651C166.602 138.002 175.091 135.342 188.275 133.305C194.421 132.355 200.758 131.915 206.8 133.385C208.462 133.789 209.852 134.278 211.02 134.884C216.153 137.548 217.092 144.436 216.385 150.176C216.129 152.253 215.619 154.383 214.783 156.99C214.696 157.263 214.584 157.529 214.452 157.783L213.79 159.061C211.223 164.015 217.427 168.842 221.598 165.136C231.732 157.221 238.32 152.642 246.97 147.663C251.689 144.947 259.164 142.841 264.49 143.972C271.952 145.558 271.698 153.817 269.636 161.161C268.433 165.447 266.768 169.712 264.353 175.449L261.067 181.139C259.448 183.943 263.139 186.768 265.422 184.473C278.241 171.941 286.119 165.5 300.403 156.825C301.66 156.062 302.984 155.407 304.348 154.859C307.238 153.697 310.312 152.85 313.415 153.111C314.25 153.182 315.002 153.301 315.681 153.482C321.609 155.063 320.549 163.617 318.174 169.274C317.142 171.731 315.864 174.15 314.057 177.168L302.299 199.512L299.683 205.371C296.453 212.606 292.147 220.55 294.447 228.132C295.902 232.929 301.153 230.576 311.385 222.716C317.718 218.472 322.642 212.557 327.628 206.789C331.581 202.216 336.124 198.873 343.121 195.099C344.04 194.604 345.056 194.296 346.098 194.225C351.061 193.885 353.588 194.477 354.991 196.359C355.936 197.627 357.719 198.354 358.951 197.363C359.602 196.84 360.512 196.723 361.213 197.177C363.516 198.668 363.664 200.283 362.119 203.315C361.803 203.936 361.4 204.513 360.976 205.066C357.721 209.305 356.328 212.358 355.899 216.577C355.699 218.537 357.338 220.138 359.308 220.138C359.778 220.138 360.243 220.046 360.675 219.864C364.432 218.279 367.052 216.924 369.513 215.292C373.323 212.764 376.324 209.228 378.973 205.501L379.259 205.098L383.68 197.989C385.622 194.867 389.665 191.207 392.3 193.772C392.976 194.43 393.385 195.478 393.603 197.044C393.67 197.527 393.545 198.016 393.28 198.425C391.966 200.457 394.459 202.79 396.399 201.346L400.788 198.079C401.042 197.89 401.324 197.738 401.624 197.636C403.478 197.007 404.902 196.69 406.28 196.732C408.805 196.809 410.257 199.412 410.257 201.938C410.257 203.426 410.71 204.935 411.833 205.911C413.71 207.543 415.617 207.783 418.761 206.53C420.238 205.942 421.504 204.938 422.597 203.785L426.117 200.071C428.135 197.942 432.033 196.964 433.554 199.473C434.525 201.074 433.59 202.875 432.381 204.305C427.918 209.583 425.701 213.416 424.715 218.298C424.237 220.662 426.196 222.716 428.608 222.716C429.194 222.716 429.773 222.592 430.308 222.353L436.666 219.514C438.298 218.785 439.874 217.938 441.383 216.981L449.271 211.973L458.891 204.239C463.19 200.096 466.399 197.866 472.311 194.934C473.678 194.256 475.171 193.823 476.698 193.837C477.881 193.847 478.897 193.964 479.816 194.211C483.49 195.197 489.066 194.529 490.59 198.014C490.608 198.055 490.626 198.097 490.643 198.14C490.893 198.749 490.958 199.416 490.958 200.075C490.958 201.394 490.602 202.689 489.928 203.822L485.079 211.973C482.717 217.283 489.034 219.977 494.204 217.322C498.605 215.061 501.883 212.822 505.395 209.974C507.558 208.219 511.165 208.294 509.87 210.76C509.565 211.341 508.854 212.168 508.318 212.547L495.768 221.427C488.331 225.344 484.168 226.748 478.98 224.304C478.066 223.873 477.317 222.885 476.992 221.927C475.681 218.056 470.499 215.179 467.198 217.59C465.039 219.166 462.892 220.716 460.364 222.524C459.397 223.215 458.278 223.682 457.1 223.843C456.982 223.859 456.864 223.875 456.748 223.89C450.396 224.722 440.601 223.465 434.61 225.734C431.586 226.88 428.541 227.462 424.922 227.54C422.311 227.596 419.533 226.98 417.825 225.005C417.194 224.277 416.778 223.488 416.483 222.516C416.185 221.532 416.264 220.482 416.512 219.485L416.858 218.095C417.849 214.111 414.835 210.255 410.729 210.255C409.716 210.255 408.711 210.024 407.835 209.516C406.408 208.687 405.341 207.872 403.964 206.583C403.542 206.188 403.309 205.631 403.309 205.053C403.309 203.381 401.476 202.36 400.075 203.274C390.35 209.614 385.789 214.615 380.553 222.801C379.723 224.099 377.499 225.128 375.959 225.16C371.719 225.247 365.718 222.8 361.72 224.213C360.222 224.743 358.584 225.176 356.643 225.555C356.048 225.672 355.436 225.713 354.832 225.657C351.594 225.356 349.853 224.451 348.051 222.173C347.471 221.44 347.276 220.483 347.426 219.559C347.94 216.386 344.398 214.145 341.751 215.969L332.144 222.59C330.802 223.514 329.225 224.08 327.596 224.031C327.513 224.028 327.431 224.025 327.35 224.022C322.64 223.826 317.256 223.252 313.536 226.148C310.915 228.188 308.517 229.939 305.781 231.784C302.83 233.774 299.336 235.065 295.809 234.592C293.056 234.222 291.021 233.335 289.483 231.79C283.652 225.932 286.763 216.075 289.924 208.438C295.998 193.762 301.258 182.715 309.625 167.669C311.791 163.775 313.469 157.174 309.111 158.103C308.066 158.325 306.631 158.942 305.689 159.446C288.361 168.719 280.049 175.477 267.56 188.77L242.426 216.088C239.996 218.729 235.824 222.379 233.361 219.769C231.073 217.344 233.184 213.464 234.881 210.595L247.786 188.77C255.924 176.566 259.983 168.646 262.071 158.054C263.074 152.968 260.098 146.925 255.268 148.807C236.049 157.595 227.592 164.217 214.65 177.597C197.596 192.516 190.419 201.868 179.377 219.278L169.222 233.458L165.953 237.776C163.155 241.472 161.395 245.876 158.525 249.517C157.281 251.096 155.75 252.046 153.425 252.313C151.861 252.493 149.834 252.112 148.65 251.073C146.192 248.916 148.301 245.333 150.15 242.636L161.74 225.724L177.239 205.098L186.859 191.778L195.41 176.308C201.334 167.749 204.153 162.706 207.728 154.961C208.426 153.449 208.891 151.838 209.128 150.189L209.476 147.766C210.042 143.819 209.02 139.499 205.469 137.686C204.198 137.038 202.696 136.738 201.27 136.693C193.411 136.442 189.871 136.975 185.256 138.495C165.994 144.157 156.725 148.449 141.966 157.401C131.456 164.211 125.597 168.699 117.744 176.016C115.718 177.903 114.009 180.106 112.631 182.507C111.88 183.815 111.007 185.053 110.119 186.273C105.815 192.185 106.222 195.308 112.144 198.944C112.765 199.326 113.489 199.512 114.218 199.512H114.42C115.612 199.512 117.026 200.063 117.105 201.252ZM177.239 214.981C178.798 212.722 176.26 213.227 174.603 215.416C167.391 224.939 162.978 231.759 156.44 243.187C156.061 243.85 155.516 244.76 156.106 245.245C156.795 245.811 157.726 244.663 158.216 243.918L177.239 214.981ZM330.177 218.906C328.113 219.419 328.563 216.939 329.722 215.155C333.896 208.734 337.774 204.863 345.831 200.895C347.773 199.938 350.701 198.322 352.152 199.93C353.687 201.63 350.578 203.715 348.825 205.19C343.648 209.545 339.603 212.712 332.529 217.817C331.975 218.217 330.84 218.742 330.177 218.906ZM480.877 200.257C480.088 197.543 475.229 200.207 472.823 201.69C466.761 205.427 462.937 208.797 458.342 214.155C456.937 215.794 455.143 218.683 457.299 218.794C458.354 218.848 459.88 218.126 460.763 217.547C468.494 212.476 472.864 209.077 478.59 203.689C479.71 202.635 481.306 201.734 480.877 200.257Z" fill="#F5F5F5"/>
<path fill-rule="evenodd" clip-rule="evenodd" d="M117.105 201.252C117.201 202.693 115.402 203.287 113.977 203.057C109.471 202.33 106.568 201.147 104.223 198.782C101.481 196.017 100.757 191.841 101.459 188.01C102.604 181.771 105.304 177.474 111.502 171.582L123.921 161.891C127.75 158.903 131.814 156.23 136.074 153.898L154.792 143.651C166.602 138.002 175.091 135.342 188.275 133.305C194.421 132.355 200.758 131.915 206.8 133.385C208.462 133.789 209.852 134.278 211.02 134.884C216.153 137.548 217.092 144.436 216.385 150.176C216.129 152.253 215.619 154.383 214.783 156.99C214.696 157.263 214.584 157.529 214.452 157.783L213.79 159.061C211.223 164.015 217.427 168.842 221.598 165.136C231.732 157.221 238.32 152.642 246.97 147.663C251.689 144.947 259.164 142.841 264.49 143.972C271.952 145.558 271.698 153.817 269.636 161.161C268.433 165.447 266.768 169.712 264.353 175.449L261.067 181.139C259.448 183.943 263.139 186.768 265.422 184.473C278.241 171.941 286.119 165.5 300.403 156.825C301.66 156.062 302.984 155.407 304.348 154.859C307.238 153.697 310.312 152.85 313.415 153.111C314.25 153.182 315.002 153.301 315.681 153.482C321.609 155.063 320.549 163.617 318.174 169.274C317.142 171.731 315.864 174.15 314.057 177.168L302.299 199.512L299.683 205.371C296.453 212.606 292.147 220.55 294.447 228.132C295.902 232.929 301.153 230.576 311.385 222.716C317.718 218.472 322.642 212.557 327.628 206.789C331.581 202.216 336.124 198.873 343.121 195.099C344.04 194.604 345.056 194.296 346.098 194.225C351.061 193.885 353.588 194.477 354.991 196.359C355.936 197.627 357.719 198.354 358.951 197.363C359.602 196.84 360.512 196.723 361.213 197.177C363.516 198.668 363.664 200.283 362.119 203.315C361.803 203.936 361.4 204.513 360.976 205.066C357.721 209.305 356.328 212.358 355.899 216.577C355.699 218.537 357.338 220.138 359.308 220.138C359.778 220.138 360.243 220.046 360.675 219.864C364.432 218.279 367.052 216.924 369.513 215.292C373.323 212.764 376.324 209.228 378.973 205.501L379.259 205.098L383.68 197.989C385.622 194.867 389.665 191.207 392.3 193.772C392.976 194.43 393.385 195.478 393.603 197.044C393.67 197.527 393.545 198.016 393.28 198.425C391.966 200.457 394.459 202.79 396.399 201.346L400.788 198.079C401.042 197.89 401.324 197.738 401.624 197.636C403.478 197.007 404.902 196.69 406.28 196.732C408.805 196.809 410.257 199.412 410.257 201.938C410.257 203.426 410.71 204.935 411.833 205.911C413.71 207.543 415.617 207.783 418.761 206.53C420.238 205.942 421.504 204.938 422.597 203.785L426.117 200.071C428.135 197.942 432.033 196.964 433.554 199.473C434.525 201.074 433.59 202.875 432.381 204.305C427.918 209.583 425.701 213.416 424.715 218.298C424.237 220.662 426.196 222.716 428.608 222.716C429.194 222.716 429.773 222.592 430.308 222.353L436.666 219.514C438.298 218.785 439.874 217.938 441.383 216.981L449.271 211.973L458.891 204.239C463.19 200.096 466.399 197.866 472.311 194.934C473.678 194.256 475.171 193.823 476.698 193.837C477.881 193.847 478.897 193.964 479.816 194.211C483.49 195.197 489.066 194.529 490.59 198.014C490.608 198.055 490.626 198.097 490.643 198.14C490.893 198.749 490.958 199.416 490.958 200.075C490.958 201.394 490.602 202.689 489.928 203.822L485.079 211.973C482.717 217.283 489.034 219.977 494.204 217.322C498.605 215.061 501.883 212.822 505.395 209.974C507.558 208.219 511.165 208.294 509.87 210.76C509.565 211.341 508.854 212.168 508.318 212.547L495.768 221.427C488.331 225.344 484.168 226.748 478.98 224.304C478.066 223.873 477.317 222.885 476.992 221.927C475.681 218.056 470.499 215.179 467.198 217.59C465.039 219.166 462.892 220.716 460.364 222.524C459.397 223.215 458.278 223.682 457.1 223.843C456.982 223.859 456.864 223.875 456.748 223.89C450.396 224.722 440.601 223.465 434.61 225.734C431.586 226.88 428.541 227.462 424.922 227.54C422.311 227.596 419.533 226.98 417.825 225.005C417.194 224.277 416.778 223.488 416.483 222.516C416.185 221.532 416.264 220.482 416.512 219.485L416.858 218.095C417.849 214.111 414.835 210.255 410.729 210.255C409.716 210.255 408.711 210.024 407.835 209.516C406.408 208.687 405.341 207.872 403.964 206.583C403.542 206.188 403.309 205.631 403.309 205.053C403.309 203.381 401.476 202.36 400.075 203.274C390.35 209.614 385.789 214.615 380.553 222.801C379.723 224.099 377.499 225.128 375.959 225.16C371.719 225.247 365.718 222.8 361.72 224.213C360.222 224.743 358.584 225.176 356.643 225.555C356.048 225.672 355.436 225.713 354.832 225.657C351.594 225.356 349.853 224.451 348.051 222.173C347.471 221.44 347.276 220.483 347.426 219.559C347.94 216.386 344.398 214.145 341.751 215.969L332.144 222.59C330.802 223.514 329.225 224.08 327.596 224.031C327.513 224.028 327.431 224.025 327.35 224.022C322.64 223.826 317.256 223.252 313.536 226.148C310.915 228.188 308.517 229.939 305.781 231.784C302.83 233.774 299.336 235.065 295.809 234.592C293.056 234.222 291.021 233.335 289.483 231.79C283.652 225.932 286.763 216.075 289.924 208.438C295.998 193.762 301.258 182.715 309.625 167.669C311.791 163.775 313.469 157.174 309.111 158.103C308.066 158.325 306.631 158.942 305.689 159.446C288.361 168.719 280.049 175.477 267.56 188.77L242.426 216.088C239.996 218.729 235.824 222.379 233.361 219.769C231.073 217.344 233.184 213.464 234.881 210.595L247.786 188.77C255.924 176.566 259.983 168.646 262.071 158.054C263.074 152.968 260.098 146.925 255.268 148.807C236.049 157.595 227.592 164.217 214.65 177.597C197.596 192.516 190.419 201.868 179.377 219.278L169.222 233.458L165.953 237.776C163.155 241.472 161.395 245.876 158.525 249.517C157.281 251.096 155.75 252.046 153.425 252.313C151.861 252.493 149.834 252.112 148.65 251.073C146.192 248.916 148.301 245.333 150.15 242.636L161.74 225.724L177.239 205.098L186.859 191.778L195.41 176.308C201.334 167.749 204.153 162.706 207.728 154.961C208.426 153.449 208.891 151.838 209.128 150.189L209.476 147.766C210.042 143.819 209.02 139.499 205.469 137.686C204.198 137.038 202.696 136.738 201.27 136.693C193.411 136.442 189.871 136.975 185.256 138.495C165.994 144.157 156.725 148.449 141.966 157.401C131.456 164.211 125.597 168.699 117.744 176.016C115.718 177.903 114.009 180.106 112.631 182.507C111.88 183.815 111.007 185.053 110.119 186.273C105.815 192.185 106.222 195.308 112.144 198.944C112.765 199.326 113.489 199.512 114.218 199.512H114.42C115.612 199.512 117.026 200.063 117.105 201.252ZM177.239 214.981C178.798 212.722 176.26 213.227 174.603 215.416C167.391 224.939 162.978 231.759 156.44 243.187C156.061 243.85 155.516 244.76 156.106 245.245C156.795 245.811 157.726 244.663 158.216 243.918L177.239 214.981ZM330.177 218.906C328.113 219.419 328.563 216.939 329.722 215.155C333.896 208.734 337.774 204.863 345.831 200.895C347.773 199.938 350.701 198.322 352.152 199.93C353.687 201.63 350.578 203.715 348.825 205.19C343.648 209.545 339.603 212.712 332.529 217.817C331.975 218.217 330.84 218.742 330.177 218.906ZM480.877 200.257C480.088 197.543 475.229 200.207 472.823 201.69C466.761 205.427 462.937 208.797 458.342 214.155C456.937 215.794 455.143 218.683 457.299 218.794C458.354 218.848 459.88 218.126 460.763 217.547C468.494 212.476 472.864 209.077 478.59 203.689C479.71 202.635 481.306 201.734 480.877 200.257Z" fill="#E0E0E0" fill-opacity="0.2"/>
<path d="M235.494 110.564C263.46 116.92 279.667 116.951 306.625 111.351C309.058 110.845 313.011 109.448 313.254 111.921C313.506 114.483 309.006 115.105 306.474 115.566C285.778 119.327 272.526 121.106 248.855 121.736L236.398 120.383C231.528 119.854 226.708 118.928 221.989 117.614L208.079 113.743C203.559 112.485 199.145 110.876 194.877 108.93L149.448 88.2196L122.191 76.6177C110.501 72.3709 102.956 70.6147 95.3429 70.9992C88.2268 71.3587 81.4525 74.2327 75.5943 78.2886C65.4305 85.3255 60.5006 92.7868 57.0525 104.385C55.3411 110.141 54.7546 116.172 54.8651 122.176C55.2159 141.228 57.8156 154.305 65.0058 175.449L82.108 218.419L98.1413 247.639L118.45 282.874L149.982 325.415C161.756 338.874 168.839 345.642 182.584 355.923C182.702 356.01 182.82 356.096 182.937 356.18C191.829 362.616 203.317 355.878 205.026 345.034C205.227 343.76 205.4 342.386 205.565 340.884L207.702 327.133C210.488 312.741 212.967 304.883 219.995 291.468C230.966 274.551 240.512 266.857 263.718 257.754C264.838 257.314 266.564 256.845 267.62 257.42C269.307 258.337 266.652 260.159 264.982 261.108C252.237 268.346 245.34 274.416 238.792 284.835C236.079 289.151 234.145 293.899 232.526 298.734L229.962 306.391C228.308 311.329 227.087 316.402 226.31 321.552L223.201 342.173L221.447 350.636C220.48 355.299 219.452 360.064 216.871 364.066C215.435 366.292 213.753 368.063 211.643 369.475C200.837 376.706 186.097 372.739 174.589 366.687C165.88 362.107 158.803 356.523 149.982 347.329L122.191 316.391L96.0036 282.874L70.3502 243.771L49.3108 200.917C47.3066 196.835 45.6148 192.607 44.2497 188.269L35.0769 159.12L30.2669 132.909C29.3009 116.107 30.1551 106.983 36.1458 91.6573C42.3383 76.7901 49.1449 68.9763 66.8368 60.6851C71.9536 58.2872 77.3965 56.598 82.9936 55.8202C97.4108 53.8169 108.316 55.3999 126.467 61.5782L151.051 72.7504L191.669 94.2355C207.495 102.023 216.999 105.698 235.494 110.564Z" fill="url(#paint1_linear_135_2)"/>
<g filter="url(#filter0_d_135_2)">
<path d="M265.957 83.4929L231.7 92.2747C230.104 92.6838 227.746 92.0523 228.567 90.6239C228.806 90.2079 229.299 89.8183 229.721 89.5888C243.008 82.3458 251.067 78.7111 265.957 73.1801C284.213 66.3389 294.388 63.4986 312.454 59.8593C335.773 56.4424 350.397 55.9908 371.996 58.499C378.961 59.3077 385.801 61.0724 392.224 63.8836C413.739 73.3009 422.802 81.8226 426.825 99.8215C429.174 111.583 429.001 118.17 425.221 129.901L420.317 142.913C420.032 143.669 419.503 144.449 418.701 144.544C417.304 144.707 416.912 142.78 417.257 141.417C419.729 131.63 420.001 125.058 417.9 115.804C417.17 112.588 415.906 109.507 414.206 106.681C402.933 87.9328 390.597 81.2249 362.157 77.0474C324.744 72.7605 303.676 74.3971 265.957 83.4929Z" fill="url(#paint2_linear_135_2)"/>
</g>
<defs>
<filter id="filter0_d_135_2" x="222.398" y="54.9053" width="211.972" height="99.6481" filterUnits="userSpaceOnUse" color-interpolation-filters="sRGB">
<feFlood flood-opacity="0" result="BackgroundImageFix"/>
<feColorMatrix in="SourceAlpha" type="matrix" values="0 0 0 0 0 0 0 0 0 0 0 0 0 0 0 0 0 0 127 0" result="hardAlpha"/>
<feOffset dy="4"/>
<feGaussianBlur stdDeviation="3"/>
<feComposite in2="hardAlpha" operator="out"/>
<feColorMatrix type="matrix" values="0 0 0 0 0 0 0 0 0 0 0 0 0 0 0 0 0 0 0.5 0"/>
<feBlend mode="normal" in2="BackgroundImageFix" result="effect1_dropShadow_135_2"/>
<feBlend mode="normal" in="SourceGraphic" in2="effect1_dropShadow_135_2" result="shape"/>
</filter>
<linearGradient id="paint0_linear_135_2" x1="481" y1="0" x2="481" y2="429.701" gradientUnits="userSpaceOnUse">
<stop stop-color="#0E5C46"/>
</linearGradient>
<linearGradient id="paint1_linear_135_2" x1="-50.4342" y1="231.31" x2="397.972" y2="205.416" gradientUnits="userSpaceOnUse">
<stop stop-color="#D4AF37"/>
<stop offset="1" stop-color="white"/>
</linearGradient>
<linearGradient id="paint2_linear_135_2" x1="210.375" y1="57.2811" x2="439.073" y2="222.575" gradientUnits="userSpaceOnUse">
<stop stop-color="#D4AF37"/>
<stop offset="1" stop-color="white"/>
</linearGradient>
</defs>
</svg>
